<?xml version="1.0" standalone="no"?>
<!DOCTYPE svg PUBLIC "-//W3C//DTD SVG 20010904//EN"
 "http://www.w3.org/TR/2001/REC-SVG-20010904/DTD/svg10.dtd">
<svg version="1.0" xmlns="http://www.w3.org/2000/svg"
 width="1080.000000pt" height="1080.000000pt" viewBox="0 0 1080.000000 1080.000000"
 preserveAspectRatio="xMidYMid meet">
<metadata>
Created by potrace 1.14, written by Peter Selinger 2001-2017
</metadata>
<g transform="translate(0.000000,1080.000000) scale(0.100000,-0.100000)"
fill="#000000" stroke="none">
<path d="M5090 10746 c-3 -2 -57 -7 -120 -11 -63 -4 -121 -8 -130 -10 -8 -1
-42 -6 -75 -9 -33 -4 -71 -9 -85 -11 -37 -5 -113 -17 -130 -20 -14 -2 -69 -11
-132 -21 -16 -2 -41 -6 -58 -9 -47 -8 -281 -62 -330 -76 -25 -7 -49 -13 -55
-15 -100 -24 -551 -179 -569 -195 -6 -5 -17 -9 -25 -9 -19 0 -112 -41 -336
-150 -264 -127 -508 -271 -745 -439 -103 -73 -330 -249 -361 -280 -9 -9 -40
-36 -70 -61 -112 -94 -363 -342 -489 -485 -29 -33 -67 -76 -84 -95 -143 -160
-412 -546 -554 -795 -101 -177 -238 -458 -301 -615 -119 -301 -202 -557 -257
-795 -8 -33 -21 -91 -30 -129 -9 -38 -17 -79 -19 -90 -1 -12 -10 -61 -19 -111
-8 -49 -18 -108 -21 -130 -3 -22 -7 -49 -10 -60 -2 -11 -7 -51 -10 -90 -4 -38
-8 -77 -10 -87 -2 -10 -7 -64 -10 -120 -4 -57 -9 -119 -11 -138 -5 -51 -4
-502 1 -590 7 -118 22 -279 30 -340 2 -14 7 -47 10 -75 25 -202 90 -513 155
-745 40 -139 139 -434 170 -505 9 -22 37 -87 61 -145 78 -186 221 -467 332
-650 52 -86 226 -351 236 -360 3 -3 22 -27 41 -55 19 -27 39 -55 45 -61 5 -6
21 -26 35 -44 187 -248 468 -545 729 -770 35 -30 69 -60 75 -66 6 -5 43 -34
81 -64 39 -30 97 -75 130 -100 33 -26 92 -69 130 -95 39 -27 91 -63 117 -82
26 -18 50 -33 52 -33 3 0 37 -22 78 -48 40 -27 94 -61 120 -75 26 -15 84 -47
127 -72 140 -79 406 -206 576 -274 11 -5 31 -13 45 -19 166 -69 610 -210 747
-236 10 -2 77 -16 148 -30 72 -15 146 -29 165 -32 19 -3 58 -9 85 -14 28 -6
73 -12 100 -15 28 -3 68 -8 90 -11 75 -11 90 -13 190 -19 55 -4 109 -9 120
-11 26 -5 624 -5 650 0 11 2 65 7 120 11 55 3 111 8 125 10 14 2 48 6 75 9 96
12 130 17 210 31 44 8 100 17 125 20 25 3 53 8 62 11 16 5 30 8 81 19 57 12
73 16 92 19 119 23 550 155 699 215 39 16 94 38 121 49 214 85 655 311 805
412 105 70 152 100 159 100 5 0 11 4 13 8 2 4 41 34 88 67 108 75 289 216 400
311 233 201 536 521 736 779 368 475 652 1009 845 1586 65 197 151 521 174
659 3 19 8 42 10 50 2 8 6 37 10 64 3 27 8 52 10 56 2 4 7 29 10 56 4 27 8 60
10 74 2 14 7 52 11 85 3 33 8 69 10 80 2 10 6 62 10 115 3 52 8 111 10 130 5
46 4 593 -1 645 -2 22 -6 78 -9 125 -3 47 -8 95 -10 107 -3 12 -7 50 -11 85
-3 35 -8 74 -10 88 -3 14 -7 41 -9 60 -3 20 -12 76 -21 125 -10 50 -18 99 -20
110 -3 27 -12 68 -46 215 -127 540 -387 1157 -678 1613 -79 124 -215 319 -284
407 -90 116 -111 143 -122 154 -5 6 -37 43 -70 81 -135 158 -342 367 -516 520
-609 537 -1308 917 -2099 1141 -113 32 -344 88 -409 99 -105 17 -285 45 -326
50 -27 4 -61 8 -75 10 -14 3 -56 7 -95 11 -38 3 -88 8 -110 11 -53 6 -719 15
-725 9z"/>
</g>
</svg>
